<mxfile host="app.diagrams.net" agent="Mozilla/5.0 (Windows NT 10.0; Win64; x64) AppleWebKit/537.36 (KHTML, like Gecko) Chrome/131.0.0.0 Safari/537.36 Edg/131.0.0.0" version="24.8.6">
  <diagram name="PÃ¡gina-1" id="BCHF-5Q5EMjY2CzNp5F7">
    <mxGraphModel dx="1042" dy="581" grid="0" gridSize="10" guides="1" tooltips="1" connect="1" arrows="1" fold="1" page="1" pageScale="1" pageWidth="700" pageHeight="1000" math="0" shadow="0">
      <root>
        <mxCell id="0" />
        <mxCell id="1" parent="0" />
        <mxCell id="UvF5SmiHXKKENpEFAL-r-3" value="&lt;div style=&quot;&quot;&gt;&lt;span style=&quot;font-size: 33px;&quot;&gt;&lt;b&gt;Parte N&lt;/b&gt;&lt;/span&gt;&lt;/div&gt;" style="text;html=1;align=center;verticalAlign=middle;whiteSpace=wrap;rounded=0;" parent="1" vertex="1">
          <mxGeometry x="152" y="8" width="392" height="167" as="geometry" />
        </mxCell>
        <mxCell id="UvF5SmiHXKKENpEFAL-r-7" value="&lt;font style=&quot;font-size: 24px;&quot;&gt;Siguente&lt;/font&gt;" style="rounded=0;whiteSpace=wrap;html=1;" parent="1" vertex="1">
          <mxGeometry x="290" y="860" width="120" height="80" as="geometry" />
        </mxCell>
        <mxCell id="y9TVDUa1JKEA_eRrkemc-132" value="&lt;span style=&quot;font-size: 24px;&quot;&gt;Caballo&lt;/span&gt;" style="rounded=0;whiteSpace=wrap;html=1;" parent="1" vertex="1">
          <mxGeometry x="234" y="235" width="222" height="80" as="geometry" />
        </mxCell>
        <mxCell id="S5cwmYNmSuCaRX3Jxkzq-4" value="&lt;span style=&quot;font-size: 20px;&quot;&gt;Herramienta 1&lt;/span&gt;" style="ellipse;whiteSpace=wrap;html=1;rounded=0;strokeColor=default;align=center;verticalAlign=middle;fontFamily=Helvetica;fontSize=12;fontColor=default;fillColor=default;" parent="1" vertex="1">
          <mxGeometry x="67" y="484" width="153" height="100" as="geometry" />
        </mxCell>
        <mxCell id="S5cwmYNmSuCaRX3Jxkzq-5" value="&lt;span style=&quot;font-size: 20px;&quot;&gt;Herramienta 2&lt;/span&gt;" style="ellipse;whiteSpace=wrap;html=1;rounded=0;strokeColor=default;align=center;verticalAlign=middle;fontFamily=Helvetica;fontSize=12;fontColor=default;fillColor=default;" parent="1" vertex="1">
          <mxGeometry x="271.5" y="484" width="153" height="100" as="geometry" />
        </mxCell>
        <mxCell id="S5cwmYNmSuCaRX3Jxkzq-6" value="&lt;span style=&quot;font-size: 20px;&quot;&gt;Herramienta 3&lt;/span&gt;" style="ellipse;whiteSpace=wrap;html=1;rounded=0;strokeColor=default;align=center;verticalAlign=middle;fontFamily=Helvetica;fontSize=12;fontColor=default;fillColor=default;" parent="1" vertex="1">
          <mxGeometry x="476" y="474" width="153" height="100" as="geometry" />
        </mxCell>
        <mxCell id="S5cwmYNmSuCaRX3Jxkzq-7" value="&lt;span style=&quot;font-size: 20px;&quot;&gt;Herramienta 4&lt;/span&gt;" style="ellipse;whiteSpace=wrap;html=1;rounded=0;strokeColor=default;align=center;verticalAlign=middle;fontFamily=Helvetica;fontSize=12;fontColor=default;fillColor=default;" parent="1" vertex="1">
          <mxGeometry x="58" y="644" width="153" height="100" as="geometry" />
        </mxCell>
        <mxCell id="S5cwmYNmSuCaRX3Jxkzq-8" value="&lt;span style=&quot;font-size: 20px;&quot;&gt;Herramienta 5&lt;/span&gt;" style="ellipse;whiteSpace=wrap;html=1;rounded=0;strokeColor=default;align=center;verticalAlign=middle;fontFamily=Helvetica;fontSize=12;fontColor=default;fillColor=default;" parent="1" vertex="1">
          <mxGeometry x="271.5" y="644" width="153" height="100" as="geometry" />
        </mxCell>
        <mxCell id="S5cwmYNmSuCaRX3Jxkzq-9" value="&lt;span style=&quot;font-size: 20px;&quot;&gt;Herramienta 6&lt;/span&gt;" style="ellipse;whiteSpace=wrap;html=1;rounded=0;strokeColor=default;align=center;verticalAlign=middle;fontFamily=Helvetica;fontSize=12;fontColor=default;fillColor=default;" parent="1" vertex="1">
          <mxGeometry x="476" y="635" width="153" height="100" as="geometry" />
        </mxCell>
        <mxCell id="FuVoaKp5N1LIJIZd7T1H-1" value="&lt;font style=&quot;font-size: 20px;&quot;&gt;Ayuda&lt;/font&gt;" style="ellipse;whiteSpace=wrap;html=1;aspect=fixed;" vertex="1" parent="1">
          <mxGeometry x="580" y="51.5" width="80" height="80" as="geometry" />
        </mxCell>
      </root>
    </mxGraphModel>
  </diagram>
</mxfile>
